# xmcd
#
# Track frame offsets:
#	150
#	15628
#	33277
#	55514
#	74319
#	90838
#	109205
#	128344
#	146173
#	164774
#	184248
#	199379
#	216490
#	233496
#
# Disc length: 3346 seconds
#
# Revision: 2
# Processed by: cddbd v1.5.2PL0 Copyright (c) Steve Scherf et al.
# Submitted via: audiograbber 1.83.01
#
DISCID=c10d100e
DTITLE=Carrie Underwood - Blown Away
DYEAR=2012
DGENRE=Country
TTITLE0=Good Girl
TTITLE1=Blown Away
TTITLE2=Two Black Cadillacs
TTITLE3=See You Again
TTITLE4=Do You Think About Me
TTITLE5=Forever Changed
TTITLE6=Nobody Ever Told You
TTITLE7=One Way Ticket
TTITLE8=Thank God For Hometowns
TTITLE9=Good In Goodbye
TTITLE10=Leave Love Alone
TTITLE11=Cupid's Got a Shotgun
TTITLE12=Wine After Whiskey
TTITLE13=Who Are You
EXTD=
EXTT0=
EXTT1=
EXTT2=
EXTT3=
EXTT4=
EXTT5=
EXTT6=
EXTT7=
EXTT8=
EXTT9=
EXTT10=
EXTT11=
EXTT12=
EXTT13=
PLAYORDER=
